<svg width="32" height="32" viewBox="0 0 32 32" fill="none" xmlns="http://www.w3.org/2000/svg">
  <rect width="32" height="32" fill="#191919"/>
  <g transform="translate(2, 2) scale(0.0933)">
    <path fill-rule="evenodd" clip-rule="evenodd" d="M89.6779 45.0952C125.924 24.2532 166.282 15.3228 203.299 19.9365C241.122 24.6493 271.008 42.8823 287.467 71.2574C303.925 99.6323 304.82 134.526 290.014 169.493C275.518 203.732 247.568 234.061 211.322 254.903C181.312 272.158 148.494 281.25 117.08 281.25C110.546 281.25 104.074 280.853 97.7016 280.062C59.8782 275.349 29.9921 257.118 13.5335 228.743C-2.92498 200.368 -3.81968 165.474 10.9865 130.507C25.4825 96.2685 53.4317 65.9375 89.6779 45.0952ZM113.022 54.5178C112.504 54.7618 111.987 55.0117 111.469 55.2613C101.203 62.9218 91.5207 73.7058 82.0022 88.5736C48.4267 141.019 56.7609 225.538 100.36 250.871C110.136 256.551 120.348 259.779 130.236 260.951C103.812 243.253 81.3686 200.716 81.3686 149.839H81.3814C81.3843 110.563 94.7644 76.2604 113.022 54.5178ZM70.212 82.4671C25.3833 121.776 7.89883 177.685 31.52 218.427C42.411 237.218 60.7648 250.604 84.1555 257.139C63.8213 242.961 46.464 218.673 42.4386 191.585C37.7557 160.093 45.5451 126.103 62.1279 95.8722C64.7191 91.1514 67.4163 86.6839 70.212 82.4671ZM101.43 158.683C102.448 184.25 107.876 207.925 116.981 226.095C124.198 240.505 133.228 250.093 142.544 253.532C141.526 227.964 134.855 205.526 125.75 187.355C118.533 172.945 110.746 162.122 101.43 158.683ZM198.902 158.683C189.586 162.122 181.81 172.933 174.58 187.355C165.475 205.526 158.804 227.952 157.786 253.532C167.102 250.093 176.12 240.518 183.349 226.095C192.454 207.925 197.884 184.262 198.902 158.683ZM171.24 38.6389C170.853 38.6705 170.466 38.7014 170.078 38.736C196.501 56.4308 218.947 98.9645 218.95 149.839L218.943 151.412C218.593 189.915 205.405 223.508 187.475 244.971C199.645 236.756 210.382 224.016 225.907 196.15C246.775 158.696 243.01 83.837 205.062 49.9329C194.228 40.2432 179.285 38.8914 171.24 38.6389ZM150.216 72.1839C145.989 120.911 130.382 149.39 100.738 149.844C131.856 150.346 146.546 182.705 149.561 236.239C152.8 182.701 168.449 150.341 199.587 149.844C170.18 149.375 154.588 120.49 150.216 72.1839ZM216.685 42.4878C257.555 69.7162 275.921 142.282 238.687 203.683C235.58 209.348 232.086 214.758 228.274 219.886C247.606 203.71 262.569 184.151 271.555 162.938C283.976 133.586 283.404 104.618 269.927 81.3758C258.633 61.8976 239.629 48.7885 216.685 42.4878ZM142.533 46.1719C133.217 49.6105 124.199 59.1844 116.97 73.6066C107.865 91.777 102.435 115.441 101.417 141.021C110.733 137.582 118.509 126.77 125.739 112.348C134.844 94.1776 141.515 71.7515 142.533 46.1719ZM157.786 46.1719C158.804 71.7392 165.475 94.1776 174.58 112.348C181.797 126.758 189.586 137.582 198.902 141.021C197.884 115.453 192.454 91.7788 183.349 73.6084C176.132 59.1982 167.102 49.6106 157.786 46.1719Z" fill="#FFFAEE"/>
  </g>
</svg>
